<svg width="50" height="50" viewBox="0 0 50 50" fill="none" xmlns="http://www.w3.org/2000/svg">
<path d="M8.87451 22.958V33.3122C8.87451 37.1038 8.87451 37.1038 12.4578 39.5205L22.3121 45.208C23.7912 46.0622 26.2079 46.0622 27.6871 45.208L37.5412 39.5205C41.1246 37.1038 41.1246 37.1038 41.1246 33.3122V22.958C41.1246 19.1664 41.1246 19.1664 37.5412 16.7498L27.6871 11.0623C26.2079 10.2081 23.7912 10.2081 22.3121 11.0623L12.4578 16.7498C8.87451 19.1664 8.87451 19.1664 8.87451 22.958Z" stroke="#EFF5E1" stroke-width="2" stroke-linecap="round" stroke-linejoin="round"/>
<path opacity="0.4" d="M36.4583 15.8959V10.4167C36.4583 6.25008 34.375 4.16675 30.2083 4.16675H19.7916C15.625 4.16675 13.5416 6.25008 13.5416 10.4167V15.7501" stroke="#EFF5E1" stroke-width="2" stroke-linecap="round" stroke-linejoin="round"/>
<path opacity="0.4" d="M26.3121 22.8958L27.4996 24.7499C27.6871 25.0416 28.1038 25.3333 28.4163 25.4166L30.5413 25.9583C31.8538 26.2916 32.208 27.4166 31.3538 28.4583L29.958 30.1458C29.7496 30.4166 29.583 30.8958 29.6038 31.2291L29.7288 33.4166C29.8121 34.7708 28.8538 35.4583 27.6038 34.9583L25.5621 34.1458C25.2496 34.0208 24.7288 34.0208 24.4163 34.1458L22.3746 34.9583C21.1246 35.4583 20.1662 34.7499 20.2496 33.4166L20.3746 31.2291C20.3954 30.8958 20.2287 30.3958 20.0204 30.1458L18.6246 28.4583C17.7704 27.4166 18.1246 26.2916 19.4371 25.9583L21.5621 25.4166C21.8955 25.3333 22.3121 25.0208 22.4788 24.7499L23.6663 22.8958C24.4163 21.7708 25.583 21.7708 26.3121 22.8958Z" stroke="#EFF5E1" stroke-width="2" stroke-linecap="round" stroke-linejoin="round"/>
</svg>
