<svg width="20" height="20" viewBox="0 0 20 20" fill="none" xmlns="http://www.w3.org/2000/svg">
<path d="M3.16184 10.0242C3.60949 7.78608 3.8333 6.66697 4.57286 5.94619C4.70955 5.81297 4.85743 5.69175 5.01486 5.58384C5.86668 5 7.00794 5 9.29048 5H10.7096C12.9921 5 14.1334 5 14.9852 5.58384C15.1426 5.69175 15.2905 5.81297 15.4272 5.94619C16.1667 6.66697 16.3906 7.78608 16.8382 10.0242C17.4809 13.2376 17.8022 14.8442 17.0625 15.9827C16.9286 16.1889 16.7722 16.3796 16.5964 16.5513C15.6251 17.5 13.9866 17.5 10.7096 17.5H9.29048C6.01349 17.5 4.37501 17.5 3.4037 16.5513C3.22783 16.3796 3.07149 16.1889 2.93756 15.9827C2.19784 14.8442 2.51918 13.2376 3.16184 10.0242Z" stroke="#2D3B36"/>
<path opacity="0.5" d="M12.5 8.33333C12.9603 8.33333 13.3334 7.96023 13.3334 7.5C13.3334 7.03976 12.9603 6.66666 12.5 6.66666C12.0398 6.66666 11.6667 7.03976 11.6667 7.5C11.6667 7.96023 12.0398 8.33333 12.5 8.33333Z" fill="#2D3B36"/>
<path opacity="0.5" d="M7.50002 8.33333C7.96026 8.33333 8.33335 7.96023 8.33335 7.5C8.33335 7.03976 7.96026 6.66666 7.50002 6.66666C7.03978 6.66666 6.66669 7.03976 6.66669 7.5C6.66669 7.96023 7.03978 8.33333 7.50002 8.33333Z" fill="#2D3B36"/>
<path opacity="0.5" d="M7.5 5V4.16666C7.5 2.78596 8.61925 1.66666 10 1.66666C11.3807 1.66666 12.5 2.78596 12.5 4.16666V5" stroke="#2D3B36" stroke-linecap="round"/>
</svg>
