<svg width="30" height="30" viewBox="0 0 30 30" fill="none" xmlns="http://www.w3.org/2000/svg">
<path d="M2.5 3.75L2.83114 3.86037C4.48119 4.4104 5.30621 4.6854 5.7781 5.34012C6.25 5.99484 6.25 6.86449 6.25 8.6038V11.875C6.25 15.4105 6.25 17.1782 7.34835 18.2766C8.4467 19.375 10.2145 19.375 13.75 19.375H23.75" stroke="#2D3B36" stroke-width="2" stroke-linecap="round"/>
<path opacity="0.5" d="M9.375 22.5C10.4105 22.5 11.25 23.3395 11.25 24.375C11.25 25.4105 10.4105 26.25 9.375 26.25C8.33946 26.25 7.5 25.4105 7.5 24.375C7.5 23.3395 8.33946 22.5 9.375 22.5Z" stroke="#2D3B36" stroke-width="2"/>
<path opacity="0.5" d="M20.625 22.5C21.6605 22.5 22.5 23.3394 22.5 24.375C22.5 25.4105 21.6605 26.25 20.625 26.25C19.5895 26.25 18.75 25.4105 18.75 24.375C18.75 23.3394 19.5895 22.5 20.625 22.5Z" stroke="#2D3B36" stroke-width="2"/>
<path d="M6.25 7.5H20.563C23.1317 7.5 24.416 7.5 24.9719 8.34283C25.5276 9.18566 25.0216 10.3662 24.0097 12.7272L23.474 13.9772C23.0016 15.0795 22.7654 15.6306 22.2957 15.9404C21.8261 16.25 21.2265 16.25 20.0272 16.25H6.25" stroke="#2D3B36" stroke-width="2"/>
</svg>
