<svg width="40" height="40" viewBox="0 0 40 40" fill="none" xmlns="http://www.w3.org/2000/svg">
<g clip-path="url(#clip0_2027_211)">
<path d="M33.3333 19.9043C33.3333 12.6035 27.3738 6.66683 19.9999 6.66683C12.626 6.66683 6.66659 12.6035 6.66659 19.9043C6.66659 21.8875 6.9109 23.1642 7.21397 24.0977C7.41577 24.719 7.90189 24.1073 8.14105 23.883C9.77775 22.3473 12.3368 22.3838 13.9289 23.9658C16.2969 26.3185 18.4809 29.5818 15.4634 32.5818C13.8434 34.1925 11.4037 34.8623 9.54715 33.1277C7.15052 30.8882 5.06802 28.2822 4.04357 25.127C3.61492 23.8068 3.33325 22.175 3.33325 19.9043C3.33325 10.7425 10.8053 3.3335 19.9999 3.3335C29.1946 3.3335 36.6666 10.7425 36.6666 19.9043C36.6666 22.175 36.3849 23.8068 35.9562 25.127C34.9317 28.2822 32.8493 30.8882 30.4528 33.1277C28.5961 34.8623 26.1564 34.1925 24.5364 32.5818C21.5189 29.5818 23.7029 26.3185 26.0709 23.9658C27.6631 22.3838 30.2221 22.3473 31.8587 23.883C32.3207 24.3165 32.5476 24.8317 32.7859 24.0977C33.0889 23.1642 33.3333 21.8875 33.3333 19.9043Z" fill="#EFF5E1"/>
</g>
<defs>
<clipPath id="clip0_2027_211">
<rect width="40" height="40" fill="white"/>
</clipPath>
</defs>
</svg>
